<?xml version="1.0" encoding="utf-8"?>
<!-- Generator: Adobe Illustrator 27.2.0, SVG Export Plug-In . SVG Version: 6.00 Build 0)  -->
<svg version="1.1" id="Grupo_1014" xmlns="http://www.w3.org/2000/svg" xmlns:xlink="http://www.w3.org/1999/xlink" x="0px" y="0px"
	 viewBox="0 0 240.3 32" style="enable-background:new 0 0 240.3 32;" xml:space="preserve">
<style type="text/css">
	.st0{fill:#EDEDE3;}
	.st1{fill:#ECEBE1;}
	.st2{fill:#258F52;}
	.st3{fill:#ED2437;}
</style>
<g id="Fiat_LOGO" transform="translate(59.94)">
	<g id="Grupo_909">
		<path id="Caminho_146" class="st0" d="M-30.2,0h-9.5v32h4.3V17.5h4.8c0.4,2.6,0.5,13.6,0.5,14.4h4.4C-25.6,23.9-25.7,8.7-30.2,0
			 M-35.4,13.8V3.6h2.3c0.8,2,1.4,4.1,1.8,6.3c0.4,2.1,0.6,3.9,0.6,3.9H-35.4z"/>
		<rect id="Retângulo_55" x="-47.9" class="st0" width="4.8" height="32"/>
		<path id="Caminho_147" class="st0" d="M-59.9,0v32h4.8V17.5h3.5v-3.7h-3.5V3.7h4.5V0H-59.9z"/>
		<path id="Caminho_148" class="st0" d="M-25.7,0v3.7h3.4l0,28.3h4.7V3.7h3.4V0H-25.7z"/>
	</g>
</g>
<g>
	<g>
		<polygon class="st1" points="76.6,0 66.2,32 71,32 81.5,0 		"/>
		<polygon class="st2" points="66.9,0 56.5,32 61.3,32 71.8,0 		"/>
		<polygon class="st1" points="86.3,0 75.8,32 80.7,32 91.1,0 		"/>
		<polygon class="st3" points="96,0 85.5,32 90.4,32 100.8,0 		"/>
	</g>
	<path class="st1" d="M120.9,2.7c-0.1,0-0.2,0-0.3,0h-9.9v27.6h8.7c0.5,0,1,0,1.5,0c2.3-0.2,5.1-0.8,7.5-3.9c2-2.5,3.1-6.1,3.1-10.1
		C131.5,7.8,126.9,2.9,120.9,2.7z M121.9,24.2c-0.3,0.2-0.6,0.3-0.9,0.4c-1,0.3-1.9,0.4-2.9,0.4h-1.6V8.1h2.3c0.8,0,1.5,0.1,2.2,0.4
		c2.8,1,4.5,3.8,4.5,8C125.4,19.1,124.7,22.6,121.9,24.2z"/>
	<polygon class="st1" points="140.9,24.8 140.9,18.8 148.2,18.8 148.2,13.4 140.9,13.4 140.9,8.1 149.4,8.1 149.4,2.7 135.1,2.7 
		135.1,30.3 148.6,30.3 151.1,24.8 	"/>
	<polygon class="st1" points="169.5,2.7 169.5,17.7 158.7,2.7 153.6,2.7 153.6,30.3 159.2,30.3 159.2,13.5 171.3,30.3 175,30.3 
		175,2.7 	"/>
	<polygon class="st1" points="194,2.7 188.6,21.7 183.3,2.7 177,2.7 185.8,30.3 190.9,30.3 199.8,2.7 	"/>
	<polygon class="st1" points="207.5,24.8 207.5,18.8 214.8,18.8 214.8,13.4 207.5,13.4 207.5,8.1 216.1,8.1 216.1,2.7 201.8,2.7 
		201.8,30.3 215.2,30.3 217.7,24.8 	"/>
	<path class="st1" d="M234,17.3c0.7-0.5,2-1.5,2.8-3.7c0.4-1,0.6-2.1,0.6-3.2c0-5.4-3.6-7.7-7.1-7.7h-1.5h-8.5v27.6h5.6V18.7
		c1.2,0,1.4,0,2.5-0.1l0.4,0.8l5.2,10.9h6.3L234,17.3z M229.7,14c-0.3,0.1-0.6,0.1-0.9,0.2c-0.2,0-0.4,0-0.7,0l-2.2,3.9V7.8h1.8
		c0.4,0,0.7,0,1.1,0c0.8,0,1.4,0.2,1.9,0.6c0.5,0.4,1,1.2,1,2.5C231.7,12.5,230.9,13.7,229.7,14z"/>
</g>
</svg>
