<?xml version="1.0" encoding="utf-8"?>
<!-- Generator: Adobe Illustrator 25.4.1, SVG Export Plug-In . SVG Version: 6.00 Build 0)  -->
<svg version="1.1" id="Capa_1" xmlns="http://www.w3.org/2000/svg" xmlns:xlink="http://www.w3.org/1999/xlink" x="0px" y="0px"
	 viewBox="0 0 120 120" style="enable-background:new 0 0 120 120;" xml:space="preserve">
<style type="text/css">
	.st0{fill:url(#shape_3_00000003801727239948599690000011026279542425415589_);}
	.st1{fill:#FFFFFF;}
	.st2{fill-rule:evenodd;clip-rule:evenodd;fill:#FFFFFF;}
	.st3{fill:#ED1C24;}
</style>
<g>
	
		<image style="overflow:visible;opacity:0.3;" width="112" height="112" xlink:href="56AAD331.png"  transform="matrix(1 0 0 1 11 11)">
	</image>
	<g>
		<g>
			
				<linearGradient id="shape_3_00000168110464321343461100000006635523729062162360_" gradientUnits="userSpaceOnUse" x1="60" y1="981.2475" x2="60" y2="1062.6415" gradientTransform="matrix(1 0 0 -1 0 1082)">
				<stop  offset="0" style="stop-color:#20B038"/>
				<stop  offset="1" style="stop-color:#60D66A"/>
			</linearGradient>
			
				<path id="shape_3_00000056408723096895020200000012944369315175591811_" style="fill:url(#shape_3_00000168110464321343461100000006635523729062162360_);" d="
				M19.5,100.8l5.7-20.9c-3.5-6.1-5.4-13.1-5.4-20.2c0-22.2,18.1-40.4,40.4-40.4c10.8,0,20.9,4.2,28.5,11.8
				c7.6,7.6,11.8,17.8,11.8,28.5c0,22.2-18.1,40.4-40.4,40.4l0,0l0,0c-6.8,0-13.4-1.7-19.2-4.9L19.5,100.8z"/>
			<path id="shape_2_00000168795983819074124090000003580397005115874464_" class="st1" d="M20.5,99.7l5.6-20.4
				c-3.5-6-5.3-12.8-5.3-19.7c0-21.6,17.7-39.4,39.5-39.4c10.6,0,20.4,4.1,27.9,11.6c7.5,7.5,11.6,17.3,11.6,27.9
				C99.8,81.4,82.1,99,60.4,99l0,0l0,0c-6.6,0-13.1-1.7-18.8-4.8L20.5,99.7z M42.4,87.1l1.2,0.7c5,3,10.8,4.6,16.6,4.6l0,0
				c18,0,32.8-14.6,32.8-32.7c0-8.8-3.4-16.9-9.6-23.1C77.2,30.4,69,27,60.3,27c-18-0.1-32.8,14.5-32.8,32.6c0,6.2,1.7,12.3,5,17.4
				l0.8,1.2L30,90.4L42.4,87.1z"/>
			<g id="shape_1_00000092433052193244003400000002220531573546075058_">
				<g>
					<path class="st2" d="M50.2,43.2c-0.7-1.6-1.5-1.7-2.2-1.7c-0.6,0-1.2,0-1.9,0c-0.7,0-1.7,0.2-2.6,1.2c-0.9,1-3.5,3.4-3.5,8.2
						c0,4.9,3.5,9.6,4,10.2c0.5,0.7,6.8,11,16.8,14.8c8.3,3.3,10,2.6,11.9,2.5c1.8-0.2,5.8-2.4,6.7-4.7c0.8-2.3,0.8-4.3,0.6-4.7
						c-0.2-0.4-0.9-0.7-1.9-1.2c-1-0.5-5.8-2.9-6.7-3.2s-1.6-0.5-2.2,0.5c-0.7,1-2.6,3.2-3.1,3.9c-0.6,0.7-1.2,0.7-2.1,0.2
						c-1-0.5-4.2-1.5-7.9-4.9c-2.9-2.6-4.9-5.9-5.5-6.8c-0.6-1-0.1-1.5,0.4-2c0.4-0.4,1-1.2,1.5-1.7c0.5-0.6,0.7-1,1-1.6
						c0.3-0.7,0.2-1.2-0.1-1.7C53.2,50,51.1,45.2,50.2,43.2z"/>
				</g>
			</g>
		</g>
	</g>
</g>
<g>
	<circle class="st3" cx="88.2" cy="30.5" r="10.9"/>
	<g>
		<path class="st1" d="M87.6,27.5L87.6,27.5l-1.9,1l-0.4-1.8l2.6-1.3h2v11.2h-2.2V27.5z"/>
	</g>
</g>
</svg>
